<svg xmlns="http://www.w3.org/2000/svg" xmlns:svg="http://www.w3.org/2000/svg" id="svg2" width="311pt" height="397.467" preserveAspectRatio="xMidYMid meet" version="1.0" viewBox="0 0 311 298.1"><metadata id="metadata22"/><path id="path6" d="M 128.5,10.7 C 101.7,14 74.3,27.5 52.6,48.1 40.8,59.2 32.2,71 24.5,86.5 c -8.9,17.8 -12.8,32.1 -13.7,51 l -0.3,6 h 39 39 l 0.3,-4 c 0.7,-12.1 6.8,-24.1 17.2,-34.5 8.5,-8.4 16.2,-13.4 25.9,-16.7 l 6.6,-2.2 81.3,-0.1 H 301 V 48 10 l -84.7,0.1 c -46.7,0.1 -86.1,0.4 -87.8,0.6 z" style="fill:#0080c0;stroke:none;stroke-width:1;stroke-miterlimit:4;stroke-dasharray:none;stroke-opacity:1"/><path id="path14" d="m 223.5,155.2 c -0.2,0.7 -0.9,4.2 -1.5,7.7 -3.4,19.5 -19.4,38 -40,46.4 l -5.5,2.2 -83,0.5 -83,0.5 -0.3,37.8 -0.2,37.8 89.2,-0.3 89.3,-0.3 9.6,-2.7 c 57.7,-16.3 100.1,-67.4 102.1,-123.3 l 0.3,-7 -38.3,-0.3 c -30.1,-0.2 -38.3,0 -38.7,1 z" style="fill:#0080c0;stroke:none;stroke-width:1;stroke-miterlimit:4;stroke-dasharray:none;stroke-opacity:1"/></svg>